<svg width="1440" height="97" viewBox="0 0 1440 97" fill="none" xmlns="http://www.w3.org/2000/svg">
<g opacity="0.8">
<rect width="1440" height="97" fill="white"/>
<path d="M495.609 29.875V28.1875H520.922V29.875H495.609ZM495.609 33.25V31.5625H520.922V33.25H495.609ZM495.609 36.625V34.9375H520.922V36.625H514.172V67H512.484V36.625H510.797V67H509.109V36.625H507.422V67H505.734V36.625H504.047V67H502.359V36.625H495.609ZM533.203 67H531.516V28.1875H533.203V67ZM529.828 67H528.141V28.1875H529.828V67ZM526.453 67H524.766V28.1875H526.453V67ZM536.578 58.5625H554.531V60.25H536.578V61.9375H554.531V63.625H536.578V65.3125H554.531V67H534.891V28.1875H554.531V29.875H536.578V31.5625H554.531V33.25H536.578V34.9375H554.531V36.625H536.578V43.375H545.789V45.0625H536.578V46.75H545.789V48.4375H536.578V50.125H545.789V51.8125H536.578V58.5625ZM571.453 47.6875H581.625C583.172 47.6875 584.477 47.1875 585.539 46.1875C586.617 45.1875 587.156 43.7656 587.156 41.9219C587.156 40.5625 586.594 39.3438 585.469 38.2656C584.344 37.1719 583.062 36.625 581.625 36.625H567.141V67H565.453V34.9375H581.625C583.531 34.9375 585.211 35.6484 586.664 37.0703C588.117 38.4766 588.844 40.0938 588.844 41.9219C588.844 44.1719 588.141 45.9766 586.734 47.3359C585.328 48.6953 583.625 49.375 581.625 49.375H571.453V47.6875ZM571.453 51.0625H581.625C584.062 51.0625 586.156 50.2109 587.906 48.5078C589.656 46.7891 590.531 44.5938 590.531 41.9219C590.531 39.625 589.633 37.6094 587.836 35.875C586.055 34.125 583.984 33.25 581.625 33.25H563.766V67H562.078V31.5625H581.625C583.484 31.5625 585.227 32.0391 586.852 32.9922C588.492 33.9453 589.797 35.2266 590.766 36.8359C591.734 38.4297 592.219 40.125 592.219 41.9219C592.219 45 591.172 47.5781 589.078 49.6562C587 51.7188 584.516 52.75 581.625 52.75H571.453V51.0625ZM571.453 54.4375H581.625C583.812 54.4375 585.844 53.8984 587.719 52.8203C589.594 51.7422 591.094 50.2422 592.219 48.3203C593.344 46.3828 593.906 44.25 593.906 41.9219C593.906 39.8125 593.344 37.8359 592.219 35.9922C591.109 34.1328 589.609 32.6484 587.719 31.5391C585.828 30.4297 583.797 29.875 581.625 29.875H560.391V67H558.703V28.1875H581.625C584.078 28.1875 586.383 28.8203 588.539 30.0859C590.695 31.3359 592.406 33.0234 593.672 35.1484C594.953 37.2578 595.594 39.5156 595.594 41.9219C595.594 44.7031 594.992 47.1484 593.789 49.2578C592.602 51.3672 590.984 53.0156 588.938 54.2031L593.297 67H591.516L587.344 55C586.719 55.25 586.242 55.4219 585.914 55.5156L589.828 67H588.047L584.227 55.9141C584.086 55.9453 583.586 56 582.727 56.0781L586.359 67H584.578L580.992 56.125H579.469L582.891 67H581.109L577.664 56.125H571.453V54.4375ZM570.516 67H568.828V38.3125H581.625C582.672 38.3125 583.57 38.6719 584.32 39.3906C585.086 40.0938 585.469 40.9375 585.469 41.9219C585.469 44.6406 584.188 46 581.625 46H571.453V44.3125H581.625C582.297 44.3125 582.82 44.1406 583.195 43.7969C583.586 43.4375 583.781 42.8125 583.781 41.9219C583.781 41.375 583.57 40.9219 583.148 40.5625C582.742 40.1875 582.234 40 581.625 40H570.516V67ZM615.961 55.6094L616.641 53.9219H622.406L623.086 55.6094H615.961ZM614.648 58.9844L615.305 57.2969H623.719L624.445 58.9844H614.648ZM613.336 62.3594L613.992 60.6719H625.055L625.758 62.3594H613.336ZM599.625 67H597.797L613.148 28.1875H614.977L630.305 67H628.5L614.062 30.4609L599.625 67ZM614.273 34.4688L615.234 36.625L603.234 67H601.43L614.273 34.4688ZM616.148 38.9219L617.039 41.2422L606.891 67H605.062L616.148 38.9219ZM617.93 43.5625L618.82 45.9297L610.5 67H608.695L617.93 43.5625ZM641.203 67H639.375L624.047 28.1875H625.852L641.203 67ZM622.219 28.1875L637.57 67H635.766L620.414 28.1875H622.219ZM618.586 28.1875L633.938 67H632.109L616.781 28.1875H618.586ZM659.836 43.375H657C655.797 43.375 654.93 43.0703 654.398 42.4609C653.867 41.8359 653.602 41.0156 653.602 40C653.602 37.75 655.281 36.625 658.641 36.625C661.797 36.625 664.172 37.0938 665.766 38.0312L664.406 39.0625C663.312 38.5625 661.391 38.3125 658.641 38.3125C657.297 38.3125 656.391 38.4609 655.922 38.7578C655.469 39.0547 655.242 39.4688 655.242 40C655.242 40.5312 655.367 40.9453 655.617 41.2422C655.867 41.5391 656.328 41.6875 657 41.6875H659.906C662.016 41.6875 663.914 42.0469 665.602 42.7656C667.305 43.4844 668.703 44.4688 669.797 45.7188C670.891 46.9531 671.727 48.3828 672.305 50.0078C672.883 51.6172 673.172 53.3438 673.172 55.1875C673.172 56.6875 672.961 58.1094 672.539 59.4531C672.117 60.7969 671.477 62.0312 670.617 63.1562C669.773 64.2812 668.75 65.2578 667.547 66.0859C666.359 66.8984 664.938 67.5312 663.281 67.9844C661.641 68.4531 659.859 68.6875 657.938 68.6875C654.922 68.6875 652.094 68.2266 649.453 67.3047C646.828 66.3984 644.641 65.125 642.891 63.4844L644.25 62.4766C645.844 63.9141 647.836 65.0312 650.227 65.8281C652.633 66.6094 655.203 67 657.938 67C660.078 67 662.008 66.6953 663.727 66.0859C665.461 65.4609 666.883 64.6094 667.992 63.5312C669.117 62.4531 669.977 61.2031 670.57 59.7812C671.18 58.3594 671.484 56.8281 671.484 55.1875C671.484 53.0156 671.047 51.0547 670.172 49.3047C669.297 47.5391 667.961 46.1094 666.164 45.0156C664.383 43.9219 662.273 43.375 659.836 43.375ZM657 45.0625H659.672C662.844 45.0625 665.32 46.0312 667.102 47.9688C668.898 49.9062 669.797 52.3125 669.797 55.1875C669.797 58.1094 668.758 60.5312 666.68 62.4531C664.602 64.3594 661.688 65.3125 657.938 65.3125C655.438 65.3125 653.102 64.9688 650.93 64.2812C648.758 63.5938 646.953 62.625 645.516 61.375L646.828 60.3203C648.109 61.3672 649.719 62.1797 651.656 62.7578C653.609 63.3359 655.703 63.625 657.938 63.625C661.234 63.625 663.75 62.8359 665.484 61.2578C667.234 59.6797 668.109 57.6562 668.109 55.1875C668.109 52.75 667.375 50.7344 665.906 49.1406C664.453 47.5469 662.367 46.75 659.648 46.75H657C654.719 46.75 653.008 46.125 651.867 44.875C650.727 43.625 650.156 42 650.156 40C650.156 38 650.859 36.375 652.266 35.125C653.688 33.875 655.812 33.25 658.641 33.25C660.625 33.25 662.469 33.4844 664.172 33.9531C665.875 34.4062 667.281 35.0625 668.391 35.9219L667.055 36.9531C665.102 35.6094 662.297 34.9375 658.641 34.9375C656.281 34.9375 654.555 35.4062 653.461 36.3438C652.383 37.2656 651.844 38.4844 651.844 40C651.844 41.5312 652.242 42.7578 653.039 43.6797C653.852 44.6016 655.172 45.0625 657 45.0625ZM657 48.4375H659.578C661.859 48.4375 663.57 49.0703 664.711 50.3359C665.852 51.6016 666.422 53.2188 666.422 55.1875C666.422 57.1875 665.711 58.8125 664.289 60.0625C662.883 61.3125 660.766 61.9375 657.938 61.9375C655.953 61.9375 654.102 61.7109 652.383 61.2578C650.68 60.7891 649.273 60.125 648.164 59.2656L649.5 58.2344C651.453 59.5781 654.266 60.25 657.938 60.25C660.297 60.25 662.016 59.7891 663.094 58.8672C664.188 57.9297 664.734 56.7031 664.734 55.1875C664.734 53.6719 664.328 52.4531 663.516 51.5312C662.703 50.5938 661.383 50.125 659.555 50.125H657C653.797 50.125 651.289 49.1719 649.477 47.2656C647.68 45.3438 646.781 42.9219 646.781 40C646.781 37.0781 647.82 34.6641 649.898 32.7578C651.977 30.8359 654.891 29.875 658.641 29.875C661.141 29.875 663.469 30.2188 665.625 30.9062C667.797 31.5938 669.602 32.5625 671.039 33.8125L669.727 34.8672C668.445 33.8203 666.836 33.0078 664.898 32.4297C662.961 31.8516 660.875 31.5625 658.641 31.5625C655.344 31.5625 652.82 32.3516 651.07 33.9297C649.336 35.5078 648.469 37.5312 648.469 40C648.469 42.4531 649.203 44.4766 650.672 46.0703C652.141 47.6484 654.25 48.4375 657 48.4375ZM657 51.8125H659.578C660.781 51.8125 661.648 52.125 662.18 52.75C662.711 53.375 662.977 54.1875 662.977 55.1875C662.977 57.4375 661.297 58.5625 657.938 58.5625C654.766 58.5625 652.383 58.0938 650.789 57.1562L652.148 56.125C653.242 56.625 655.172 56.875 657.938 56.875C659.281 56.875 660.18 56.7266 660.633 56.4297C661.102 56.1328 661.336 55.7188 661.336 55.1875C661.336 54.6719 661.203 54.2656 660.938 53.9688C660.688 53.6562 660.219 53.5 659.531 53.5H657C654.844 53.5 652.891 53.1484 651.141 52.4453C649.406 51.7422 647.977 50.7734 646.852 49.5391C645.742 48.3047 644.891 46.875 644.297 45.25C643.703 43.625 643.406 41.875 643.406 40C643.406 38.5 643.617 37.0781 644.039 35.7344C644.461 34.3906 645.094 33.1562 645.938 32.0312C646.797 30.9062 647.82 29.9375 649.008 29.125C650.211 28.2969 651.633 27.6562 653.273 27.2031C654.93 26.7344 656.719 26.5 658.641 26.5C661.656 26.5 664.477 26.9609 667.102 27.8828C669.727 28.7891 671.914 30.0625 673.664 31.7031L672.305 32.7109C670.711 31.2734 668.719 30.1641 666.328 29.3828C663.938 28.5859 661.375 28.1875 658.641 28.1875C656.5 28.1875 654.562 28.5 652.828 29.125C651.109 29.7344 649.688 30.5781 648.562 31.6562C647.453 32.7344 646.594 33.9844 645.984 35.4062C645.391 36.8281 645.094 38.3594 645.094 40C645.094 42.2031 645.539 44.1875 646.43 45.9531C647.32 47.7188 648.68 49.1406 650.508 50.2188C652.336 51.2812 654.5 51.8125 657 51.8125ZM693.68 55.6094L694.359 53.9219H700.125L700.805 55.6094H693.68ZM692.367 58.9844L693.023 57.2969H701.438L702.164 58.9844H692.367ZM691.055 62.3594L691.711 60.6719H702.773L703.477 62.3594H691.055ZM677.344 67H675.516L690.867 28.1875H692.695L708.023 67H706.219L691.781 30.4609L677.344 67ZM691.992 34.4688L692.953 36.625L680.953 67H679.148L691.992 34.4688ZM693.867 38.9219L694.758 41.2422L684.609 67H682.781L693.867 38.9219ZM695.648 43.5625L696.539 45.9297L688.219 67H686.414L695.648 43.5625ZM718.922 67H717.094L701.766 28.1875H703.57L718.922 67ZM699.938 28.1875L715.289 67H713.484L698.133 28.1875H699.938ZM696.305 28.1875L711.656 67H709.828L694.5 28.1875H696.305ZM733.688 67H732V28.1875H733.688V67ZM730.312 67H728.625V28.1875H730.312V67ZM726.938 67H725.25V28.1875H726.938V67ZM723.562 67H721.875V28.1875H723.562V67ZM746.016 47.5938L755.93 28.1875H757.805L747.891 47.5938L757.805 67H755.93L746.016 47.5938ZM742.242 47.5938L752.156 28.1875H754.031L744.117 47.5938L754.031 67H752.156L742.242 47.5938ZM738.469 47.5938L748.383 28.1875H750.258L740.344 47.5938L750.258 67H748.383L738.469 47.5938ZM734.672 47.5938L744.609 28.1875H746.484L736.547 47.5938L746.484 67H744.609L734.672 47.5938ZM771.188 28.1875H772.875V67H771.188V28.1875ZM767.812 28.1875H769.5V67H767.812V28.1875ZM764.438 28.1875H766.125V67H764.438V28.1875ZM761.062 28.1875H762.75V67H761.062V28.1875ZM795.516 47.4766L794.672 49.3281L784.547 28.1875H786.234L795.516 47.4766ZM797.203 43.7734L796.336 45.625L787.922 28.1875H789.609L797.203 43.7734ZM798.891 40.0938L798.047 41.9453L791.297 28.1875H792.984L798.891 40.0938ZM796.758 53.9219L808.969 28.1875H810.656L798.445 53.9219V67H796.758V53.9219ZM800.133 53.9219L812.344 28.1875H814.031L801.82 53.9219V67H800.133V53.9219ZM803.508 53.9219L815.719 28.1875H817.406L805.195 53.9219V67H803.508V53.9219ZM794.227 52.1406L805.594 28.1875H807.281L795.07 53.9219V67H793.383V53.9219L781.172 28.1875H782.859L794.227 52.1406ZM847.734 49.9375V28.1875H849.422V49.9375C849.422 52.3125 848.484 54.3438 846.609 56.0312C844.734 57.7188 842.484 58.5625 839.859 58.5625C837.234 58.5625 834.984 57.7188 833.109 56.0312C831.234 54.3438 830.297 52.3125 830.297 49.9375V28.1875H831.984V49.9375C831.984 51.8438 832.75 53.4766 834.281 54.8359C835.828 56.1953 837.688 56.875 839.859 56.875C842.031 56.875 843.883 56.1953 845.414 54.8359C846.961 53.4766 847.734 51.8438 847.734 49.9375ZM851.109 49.9375V28.1875H852.797V49.9375C852.797 51.5625 852.453 53.1172 851.766 54.6016C851.078 56.0703 850.156 57.3438 849 58.4219C847.844 59.5 846.469 60.3594 844.875 61C843.281 61.625 841.609 61.9375 839.859 61.9375C838.109 61.9375 836.438 61.625 834.844 61C833.25 60.3594 831.875 59.5 830.719 58.4219C829.562 57.3438 828.641 56.0703 827.953 54.6016C827.266 53.1172 826.922 51.5625 826.922 49.9375V28.1875H828.609V49.9375C828.609 51.7969 829.109 53.5234 830.109 55.1172C831.125 56.6953 832.492 57.9453 834.211 58.8672C835.945 59.7891 837.828 60.25 839.859 60.25C841.891 60.25 843.766 59.7891 845.484 58.8672C847.219 57.9453 848.586 56.6953 849.586 55.1172C850.602 53.5234 851.109 51.7969 851.109 49.9375ZM854.484 49.9375V28.1875H856.172V49.9375C856.172 52.0156 855.734 54.0078 854.859 55.9141C854 57.8047 852.844 59.4375 851.391 60.8125C849.938 62.1875 848.203 63.2812 846.188 64.0938C844.172 64.9062 842.062 65.3125 839.859 65.3125C837.656 65.3125 835.547 64.9062 833.531 64.0938C831.516 63.2812 829.781 62.1875 828.328 60.8125C826.875 59.4375 825.711 57.8047 824.836 55.9141C823.977 54.0078 823.547 52.0156 823.547 49.9375V28.1875H825.234V49.9375C825.234 52.4062 825.891 54.6953 827.203 56.8047C828.516 58.8984 830.289 60.5625 832.523 61.7969C834.773 63.0156 837.219 63.625 839.859 63.625C842.5 63.625 844.938 63.0156 847.172 61.7969C849.422 60.5625 851.203 58.8984 852.516 56.8047C853.828 54.6953 854.484 52.4062 854.484 49.9375ZM857.859 49.9375V28.1875H859.547V49.9375C859.547 53.3125 858.664 56.4453 856.898 59.3359C855.133 62.2109 852.734 64.4922 849.703 66.1797C846.688 67.8516 843.406 68.6875 839.859 68.6875C836.312 68.6875 833.023 67.8516 829.992 66.1797C826.977 64.4922 824.586 62.2109 822.82 59.3359C821.055 56.4453 820.172 53.3125 820.172 49.9375V28.1875H821.859V49.9375C821.859 52.2344 822.336 54.4375 823.289 56.5469C824.242 58.6562 825.523 60.4766 827.133 62.0078C828.742 63.5234 830.656 64.7344 832.875 65.6406C835.109 66.5469 837.438 67 839.859 67C842.281 67 844.602 66.5469 846.82 65.6406C849.055 64.7344 850.977 63.5234 852.586 62.0078C854.195 60.4766 855.477 58.6562 856.43 56.5469C857.383 54.4375 857.859 52.2344 857.859 49.9375ZM875.672 67H873.984V28.1875H875.672V67ZM872.297 67H870.609V28.1875H872.297V67ZM868.922 67H867.234V28.1875H868.922V67ZM865.547 67H863.859V28.1875H865.547V67ZM888 47.5938L897.914 28.1875H899.789L889.875 47.5938L899.789 67H897.914L888 47.5938ZM884.227 47.5938L894.141 28.1875H896.016L886.102 47.5938L896.016 67H894.141L884.227 47.5938ZM880.453 47.5938L890.367 28.1875H892.242L882.328 47.5938L892.242 67H890.367L880.453 47.5938ZM876.656 47.5938L886.594 28.1875H888.469L878.531 47.5938L888.469 67H886.594L876.656 47.5938ZM919.805 55.6094L920.484 53.9219H926.25L926.93 55.6094H919.805ZM918.492 58.9844L919.148 57.2969H927.562L928.289 58.9844H918.492ZM917.18 62.3594L917.836 60.6719H928.898L929.602 62.3594H917.18ZM903.469 67H901.641L916.992 28.1875H918.82L934.148 67H932.344L917.906 30.4609L903.469 67ZM918.117 34.4688L919.078 36.625L907.078 67H905.273L918.117 34.4688ZM919.992 38.9219L920.883 41.2422L910.734 67H908.906L919.992 38.9219ZM921.773 43.5625L922.664 45.9297L914.344 67H912.539L921.773 43.5625ZM945.047 67H943.219L927.891 28.1875H929.695L945.047 67ZM926.062 28.1875L941.414 67H939.609L924.258 28.1875H926.062ZM922.43 28.1875L937.781 67H935.953L920.625 28.1875H922.43Z" fill="black"/>
</g>
</svg>
